<svg width="63" height="63" viewBox="0 0 63 63" fill="none" xmlns="http://www.w3.org/2000/svg">
<path d="M31.5 19.6875V31.5" stroke="black" stroke-width="2" stroke-linecap="round" stroke-linejoin="round"/>
<path d="M41.7375 37.4062L31.5 31.5" stroke="black" stroke-width="2" stroke-linecap="round" stroke-linejoin="round"/>
<path d="M45.3306 24.5356H55.1743V14.6919" stroke="black" stroke-width="2" stroke-linecap="round" stroke-linejoin="round"/>
<path d="M46.8068 46.807C43.7789 49.8375 39.9201 51.9018 35.7187 52.7388C31.5173 53.5759 27.1621 53.1481 23.2039 51.5095C19.2457 49.8709 15.8624 47.0952 13.482 43.5334C11.1016 39.9717 9.83105 35.784 9.83105 31.5C9.83105 27.2161 11.1016 23.0283 13.482 19.4666C15.8624 15.9049 19.2457 13.1291 23.2039 11.4906C27.1621 9.85196 31.5173 9.42413 35.7187 10.2612C39.9201 11.0982 43.7789 13.1625 46.8068 16.193L55.174 24.5356" stroke="black" stroke-width="2" stroke-linecap="round" stroke-linejoin="round"/>
</svg>
