<svg width="63" height="63" viewBox="0 0 63 63" fill="none" xmlns="http://www.w3.org/2000/svg">
<g clip-path="url(#clip0_330_5279)">
<path d="M52.9264 87.3392C52.8038 86.9909 52.6092 86.6656 52.5219 86.3435C52.4836 86.1992 52.5157 86.0351 52.4851 85.9001C52.4008 85.5227 52.1924 85.1575 52.0805 84.7602C51.6009 83.0419 51.2255 81.1533 50.5726 79.4595C50.2983 78.7461 50.0486 77.9299 50.0486 77.1444C50.0486 76.8483 50.0838 76.5568 50.1666 76.2853C50.0623 74.8585 49.9811 73.8858 49.9811 72.5081C49.9811 72.4421 49.9811 72.3746 49.9811 72.3071C49.9811 72.281 49.9811 72.2565 49.9811 72.2304C49.9811 71.7701 49.9597 71.3037 49.9597 70.8527C49.9597 70.3648 49.9857 69.8938 50.093 69.4657C50.1926 69.0715 50.401 68.8444 50.4608 68.5099C50.4807 68.3964 50.4914 68.2491 50.4976 68.108C50.5343 67.1721 50.591 66.0966 50.591 65.0258C50.591 64.32 50.5665 63.6159 50.4976 62.9561C50.4148 62.166 50.2631 61.3713 50.2033 60.5244C50.1635 59.9568 50.0884 59.5901 50.0884 59.1575C50.0884 59.1007 50.0899 59.0439 50.093 58.9856C49.8509 58.7325 49.9352 58.2231 49.8371 57.8779C49.8003 57.7414 49.6777 57.6294 49.6746 57.5036C49.6746 57.4668 49.6884 57.4284 49.716 57.3931C49.431 57.1124 49.4019 56.6552 49.2486 56.2962C49.1061 55.9556 48.8395 55.6288 48.838 55.2545C48.838 55.2345 48.838 55.2161 48.841 55.1962C48.4564 55.0136 48.3568 54.5549 48.1131 54.2772C47.8511 53.9749 47.5431 53.7602 47.2289 53.504C45.4084 51.1474 42.9581 49.4184 40.7223 47.4684L40.7131 47.4607V47.4485C40.8878 45.9434 41.0196 44.4875 41.3782 43.3199C41.8073 41.9177 42.529 41.0478 43.4454 40.2163C44.3832 39.4676 45.5724 38.9214 46.9454 38.409C47.3071 38.274 47.6871 38.1113 48.0733 37.9579C48.4058 37.8689 48.7261 37.7707 48.9743 37.6388C49.6379 37.4394 50.3336 37.3074 50.8408 37.0129C51.3465 36.7183 51.5702 36.3716 51.8032 35.7441C51.8921 35.6029 51.9533 35.4495 51.9702 35.2792C52.0376 35.1058 52.1081 34.9371 52.1541 34.7791C52.2169 34.5627 52.243 34.3648 52.243 34.1823C52.243 33.7266 52.079 33.3691 51.9043 33.1099C51.3373 32.6711 50.7596 32.243 50.211 31.7843L50.1957 31.7705L50.2064 31.7536C50.3489 31.5358 50.4041 31.3286 50.4041 31.1292C50.4041 30.6367 50.0578 30.1903 49.8018 29.8282L49.7942 29.8175L49.8003 29.8052C49.9551 29.4677 50.1803 29.2559 50.1788 28.9276C50.1788 28.8831 50.1742 28.8371 50.1666 28.788C50.0715 28.1851 48.9958 28.1575 48.9161 27.5361C48.9146 27.5223 48.913 27.5085 48.913 27.4962C48.9146 27.2369 49.1751 27.0114 49.362 26.7828C49.5582 26.5435 49.7666 26.2704 49.8356 26.0894C49.8999 25.9237 49.9229 25.7656 49.9229 25.6046C49.9229 25.267 49.8172 24.9172 49.7605 24.48C49.7206 24.1731 49.7712 23.9584 49.6547 23.7911C49.5306 23.607 49.0571 23.4797 48.7797 23.3186C47.848 22.774 47.1385 22.2232 46.2788 21.6985L46.2635 21.6893L46.2681 21.6724C46.3003 21.5635 46.3386 21.4177 46.3386 21.2843C46.3386 21.2183 46.3294 21.1538 46.3064 21.1001L46.3033 21.0909L46.3064 21.0817C46.3784 20.9176 46.5439 20.8209 46.5409 20.669C46.5409 20.646 46.5378 20.623 46.5301 20.5954C46.5179 20.5954 46.5056 20.5939 46.4918 20.5939C46.3141 20.5939 46.0505 20.7258 45.813 20.7457H45.8038L45.7961 20.7411C45.5571 20.554 45.2337 20.4021 45.1985 20.063C45.1954 20.0416 45.1954 20.0216 45.1954 20.0001C45.1954 19.6503 45.459 19.2699 45.4575 18.9323C45.4575 18.917 45.4575 18.9001 45.4559 18.8848C45.4375 18.6194 45.151 18.1637 44.9456 17.8645C44.1503 16.7031 43.4224 15.5141 42.5566 14.5537C42.3972 14.3773 42.2961 14.1594 42.152 14.0014C42.0693 13.9094 41.9651 13.8311 41.8624 13.7513C41.7889 13.667 41.7153 13.5826 41.6402 13.4967C41.3644 13.1822 41.0855 12.8692 40.8096 12.5623C40.5369 12.2586 40.2672 11.964 40.0036 11.6786C39.9254 11.582 39.8473 11.4853 39.7691 11.3887L39.7569 11.4102C39.6435 11.2874 39.5301 11.1631 39.4213 11.045C39.1117 10.9346 38.8497 10.6722 38.5386 10.4927C37.9379 10.146 37.0031 9.96954 36.1481 9.64582C35.319 9.33131 34.4823 8.98765 33.7575 8.79895C33.2595 8.67007 32.7384 8.5995 32.2128 8.57802C30.1318 8.49211 28.1918 8.69616 26.5122 9.05669C22.98 9.81459 19.6103 11.3933 17.281 13.3647C16.7753 13.7928 16.3432 14.2515 15.8834 14.6903C15.8651 14.721 15.8743 14.9219 15.8467 14.9848C15.6505 15.4221 15.2414 15.8639 14.9272 16.2736C13.6109 17.9888 12.9167 20.1474 12.5367 22.754C12.3604 23.9676 12.1719 25.0614 12.2424 26.5466C12.2639 27.0053 12.2026 27.5238 12.2792 27.9826C12.3007 28.113 12.3911 28.2127 12.4263 28.3508C12.5336 28.7711 12.5213 29.1624 12.647 29.5659C13.1174 31.0816 13.7013 32.4011 14.4859 33.5057C15.0192 34.2559 15.2889 34.6978 15.9785 35.2654C16.2298 35.4664 17.8281 36.7382 19.0525 37.6327L19.0571 37.6265C19.0571 37.6265 20.6446 38.5731 22.0192 39.8864C22.2813 40.1488 22.531 40.4096 22.7655 40.6704C23.1471 41.1153 23.4765 41.5863 23.6957 42.0634C23.6941 42.0665 23.6911 42.068 23.6895 42.0696C23.734 42.1632 23.7723 42.2613 23.8014 42.3687L23.8075 42.3918L23.7846 42.3979C22.9111 42.6019 22.2506 42.9456 21.5105 43.3522C19.8692 44.2543 18.156 45.1288 16.6205 46.0401C15.557 46.6706 14.5104 47.338 13.4193 47.8826C12.8585 48.1634 12.2654 48.4104 11.7674 48.7648C11.2632 49.1223 10.779 49.492 10.2288 49.7513C9.66645 50.7132 8.86193 51.4926 8.27962 52.476C7.69883 53.4564 7.10426 54.449 6.51428 55.4953C5.97794 56.4465 5.41094 57.5067 4.78572 58.5162C4.49763 58.981 4.23559 59.538 3.90305 60.0274C3.57205 60.5137 3.17362 61.0599 3.02345 61.5309C2.95909 61.7303 2.9974 61.9328 2.95142 62.1538C2.89626 62.41 2.77826 62.6324 2.73076 62.8902C2.67866 63.1663 2.63268 63.4471 2.58365 63.7371C2.37217 64.9767 2.01052 66.3375 1.84809 67.5281C1.76534 68.1341 1.7776 68.7539 1.70098 69.3691C1.63968 69.8646 1.50483 70.3878 1.40675 70.8803C1.31174 71.3605 1.23512 71.876 0.966952 72.281C0.976146 72.3362 0.979211 72.3945 0.979211 72.4528C0.979211 72.9085 0.738622 73.4178 0.59764 73.8658C0.458191 74.3046 0.294223 74.7403 0.193084 75.1898C0.0337131 75.8971 0 76.6351 0 77.4052C0 77.7029 0.00459723 78.0066 0.00919447 78.3135C0.0413751 80.3708 0.119528 82.5371 0.119528 84.7203C0.119528 85.3815 0.173162 86.0642 0.173162 86.7393C0.173162 86.9387 0.168565 87.1382 0.156306 87.3361C0.142514 87.5539 0.0689585 87.7703 0.0704909 87.9743C0.0704909 88.1047 0.0996067 88.229 0.183889 88.3471C0.234459 88.3824 0.272769 88.3947 0.306482 88.3947C0.416816 88.4008 0.491904 88.2397 0.651275 88.2321C1.70557 88.3042 2.96062 88.2888 3.84329 88.4177C4.16663 88.3226 4.48997 88.2888 4.81177 88.2888C5.63774 88.2888 6.45758 88.5128 7.27129 88.5266C7.33106 88.5266 7.39235 88.5266 7.45365 88.5266C8.24131 88.5266 9.03203 88.4438 9.84421 88.4146C9.94688 88.41 10.0511 88.4085 10.1553 88.4085C10.8878 88.4085 11.6295 88.4883 12.3681 88.4883H12.3834C12.7972 88.4883 13.2079 88.4883 13.6155 88.4883C14.4307 88.4883 15.2383 88.4883 16.0612 88.4883C16.7585 88.4883 17.4434 88.4315 18.1177 88.4315C18.3246 88.4315 18.5315 88.4377 18.7368 88.4515C18.9023 88.2858 19.123 88.252 19.3758 88.2535C19.549 88.2535 19.739 88.2689 19.9413 88.2689H19.9597C19.9811 88.2689 20.001 88.2689 20.0225 88.2689C21.2959 88.2689 22.3962 88.4576 23.6191 88.4576C23.7217 88.4576 23.8275 88.4576 23.9317 88.453C24.3224 88.4423 24.727 88.4315 25.1086 88.4162C25.4932 88.4008 25.8748 88.2689 26.2196 88.2689C26.2303 88.2689 26.2395 88.2689 26.2502 88.2689C26.644 88.2796 27.0655 88.4852 27.4639 88.4898C27.5098 88.4898 27.5558 88.4898 27.6003 88.4898C28.4921 88.4898 29.3656 88.3655 30.2283 88.2704C30.3647 88.3257 30.3509 88.4821 30.4705 88.4898C30.5701 88.4008 30.521 88.1293 30.6988 88.0587C30.521 87.8025 30.4582 87.5355 30.4582 87.2701C30.4582 86.7577 30.6881 86.2407 30.7861 85.7482C31.0513 84.4303 31.2566 82.9836 31.7071 81.9142L31.7102 81.9066L31.7163 81.902C35.4217 79.8952 36.9587 75.7069 39.5807 72.5924L39.6159 72.551L39.622 72.6047C39.7584 73.9195 40.0159 75.3417 40.1001 76.8406C40.1047 76.9358 40.1063 77.0324 40.1063 77.1275C40.1063 77.505 40.0741 77.8778 40.0741 78.2398C40.0741 78.4009 40.0802 78.5605 40.1001 78.717C40.1477 79.122 40.3744 79.4887 40.3744 79.8937C40.3744 79.9535 40.3698 80.0134 40.3591 80.0747C40.6932 80.4552 40.6518 81.1901 40.8725 81.6596C40.8786 81.6841 40.8817 81.7071 40.8817 81.7271C40.874 81.8636 40.7591 81.8621 40.7621 81.9526C40.8066 82.0078 40.9445 82.0155 40.9476 82.1597C40.9476 82.1674 40.9476 82.175 40.946 82.1766C41.4119 84.1557 41.5284 86.2054 41.7935 88.2183L41.7981 88.2505L41.7659 88.2443C41.7168 88.2336 41.6601 88.2244 41.608 88.2244C41.5054 88.2275 41.4318 88.252 41.4241 88.3625C41.4441 88.4346 41.4824 88.4484 41.5483 88.4499C41.6218 88.4499 41.7168 88.4223 41.8057 88.4177H41.8272V88.4392C41.844 88.6064 41.9375 88.6724 42.1245 88.6755C42.1291 88.6755 42.1337 88.6755 42.1306 88.6755C42.1704 88.6601 42.175 88.6432 42.1766 88.6095C42.1766 88.5742 42.1643 88.5297 42.1643 88.4883C42.1612 88.4361 42.198 88.3824 42.2854 88.3809C43.9496 88.4024 45.5111 88.6018 47.14 88.6386C47.2305 88.6402 47.3193 88.6417 47.4097 88.6417C48.6311 88.6417 49.8248 88.4668 51.0002 88.4177C51.0278 88.4177 51.0554 88.4162 51.0829 88.4162C51.3358 88.4162 51.5871 88.4576 51.8399 88.4576C51.8783 88.4576 51.9181 88.4576 51.9564 88.4545C52.4361 88.4269 52.9188 88.3395 53.2528 88.3103C53.167 88.0035 53.046 87.6706 52.9295 87.3453L52.9264 87.3392ZM16.6037 35.6566L16.593 35.652V35.6459C16.593 35.6459 16.6006 35.6536 16.6052 35.6566H16.6037Z" fill="black"/>
</g>
<rect x="0.5" y="0.5" width="62" height="62" rx="9.5" stroke="black"/>
<defs>
<clipPath id="clip0_330_5279">
<rect width="63" height="63" rx="10" fill="white"/>
</clipPath>
</defs>
</svg>
