<svg width="34" height="34" viewBox="0 0 34 34" fill="none" xmlns="http://www.w3.org/2000/svg">
<path d="M27.3963 7.89552C25.4842 7.01816 23.4337 6.37177 21.2899 6.00155C21.2508 5.99441 21.2118 6.01226 21.1917 6.04798C20.928 6.517 20.6359 7.12887 20.4314 7.6098C18.1255 7.26459 15.8315 7.26459 13.5729 7.6098C13.3683 7.11818 13.0656 6.517 12.8007 6.04798C12.7806 6.01346 12.7416 5.9956 12.7026 6.00155C10.5599 6.37059 8.50945 7.01698 6.59617 7.89552C6.57961 7.90266 6.56541 7.91457 6.55599 7.93004C2.66674 13.7405 1.60131 19.4081 2.12398 25.0055C2.12634 25.0329 2.14171 25.0591 2.163 25.0757C4.72901 26.9601 7.21463 28.1042 9.6541 28.8624C9.69314 28.8743 9.73451 28.8601 9.75935 28.8279C10.3364 28.0399 10.8508 27.209 11.2918 26.3352C11.3179 26.284 11.293 26.2233 11.2398 26.203C10.4239 25.8935 9.647 25.5162 8.89966 25.0876C8.84055 25.0531 8.83582 24.9686 8.8902 24.9281C9.04747 24.8102 9.20477 24.6876 9.35494 24.5638C9.38211 24.5412 9.41997 24.5364 9.45192 24.5507C14.3616 26.7923 19.6769 26.7923 24.5287 24.5507C24.5606 24.5353 24.5985 24.54 24.6268 24.5626C24.7771 24.6864 24.9343 24.8102 25.0928 24.9281C25.1472 24.9686 25.1436 25.0531 25.0845 25.0876C24.3372 25.5245 23.5602 25.8935 22.7431 26.2019C22.6899 26.2221 22.6663 26.284 22.6923 26.3352C23.1428 27.2077 23.6572 28.0387 24.2236 28.8267C24.2473 28.8601 24.2898 28.8743 24.3289 28.8624C26.7802 28.1042 29.2658 26.9601 31.8318 25.0757C31.8543 25.0591 31.8685 25.0341 31.8708 25.0067C32.4964 18.5355 30.8231 12.9143 27.4353 7.93122C27.427 7.91457 27.4128 7.90266 27.3963 7.89552ZM12.025 21.5973C10.5469 21.5973 9.32892 20.2402 9.32892 18.5736C9.32892 16.907 10.5233 15.55 12.025 15.55C13.5386 15.55 14.7448 16.9189 14.7211 18.5736C14.7211 20.2402 13.5268 21.5973 12.025 21.5973ZM21.9934 21.5973C20.5153 21.5973 19.2974 20.2402 19.2974 18.5736C19.2974 16.907 20.4917 15.55 21.9934 15.55C23.507 15.55 24.7132 16.9189 24.6895 18.5736C24.6895 20.2402 23.507 21.5973 21.9934 21.5973Z" fill="black"/>
</svg>
