<svg width="40" height="40" viewBox="0 0 40 40" fill="none" xmlns="http://www.w3.org/2000/svg">
<g clip-path="url(#clip0_531_4137)">
<path fill-rule="evenodd" clip-rule="evenodd" d="M20.171 12.2169L23.2387 9.14924C24.2604 8.22929 25.5953 7.73416 26.9706 7.766C28.3567 7.79809 29.6772 8.36304 30.6576 9.34344C31.638 10.3238 32.2029 11.6443 32.235 13.0304C32.2668 14.4053 31.772 15.7398 30.8526 16.7614L26.4578 21.1406L26.454 21.1445C25.956 21.6443 25.3643 22.0408 24.7128 22.3114C24.0613 22.582 23.3627 22.7213 22.6572 22.7213C21.9517 22.7213 21.2532 22.582 20.6017 22.3114C19.9501 22.0408 19.3584 21.6443 18.8605 21.1445C18.2758 20.5576 17.3261 20.5558 16.7392 21.1405C16.1523 21.7252 16.1505 22.6749 16.7352 23.2618C17.5119 24.0414 18.4348 24.6599 19.451 25.082C20.4673 25.504 21.5568 25.7213 22.6572 25.7213C23.7576 25.7213 24.8472 25.504 25.8634 25.082C26.8787 24.6603 27.8008 24.0426 28.577 23.2641L28.5792 23.2618L32.9973 18.8594C33.0143 18.8425 33.0309 18.8251 33.0471 18.8073C34.5008 17.2123 35.2841 15.1185 35.2342 12.961C35.1842 10.8035 34.3049 8.74813 32.7789 7.22212C31.2529 5.6961 29.1975 4.81676 27.04 4.76681C24.8825 4.71686 22.7887 5.50015 21.1937 6.95391C21.1766 6.9695 21.1598 6.98549 21.1434 7.00185L18.0497 10.0956C17.4639 10.6814 17.4639 11.6311 18.0497 12.2169C18.6355 12.8027 19.5852 12.8027 20.171 12.2169ZM15.2883 17.6886C15.9398 17.418 16.6384 17.2787 17.3439 17.2787C18.0493 17.2787 18.7479 17.418 19.3994 17.6886C20.051 17.9592 20.6427 18.3557 21.1406 18.8555C21.7253 19.4424 22.675 19.4442 23.2619 18.8595C23.8488 18.2748 23.8506 17.3251 23.2659 16.7382C22.4892 15.9586 21.5663 15.3401 20.5501 14.918C19.5338 14.496 18.4443 14.2787 17.3439 14.2787C16.2435 14.2787 15.1539 14.496 14.1376 14.918C13.1223 15.3397 12.2001 15.9576 11.4239 16.7361L7.00382 21.1406C6.9868 21.1575 6.97019 21.1749 6.954 21.1927C5.50024 22.7877 4.71695 24.8815 4.7669 27.039C4.81685 29.1965 5.6962 31.2519 7.22221 32.7779C8.74822 34.3039 10.8035 35.1832 12.9611 35.2332C15.1186 35.2831 17.2124 34.4999 18.8074 33.0461C18.8245 33.0305 18.8413 33.0145 18.8576 32.9981L21.9514 29.9044C22.5372 29.3186 22.5372 28.3689 21.9514 27.7831C21.3656 27.1973 20.4159 27.1973 19.8301 27.7831L16.7624 30.8508C15.7407 31.7707 14.4058 32.2658 13.0305 32.234C11.6444 32.2019 10.3239 31.637 9.34353 30.6566C8.36313 29.6762 7.79819 28.3557 7.76609 26.9696C7.73427 25.5947 8.22908 24.2602 9.14849 23.2386L13.5433 18.8594L13.5433 18.8594L13.5471 18.8555C14.045 18.3557 14.6367 17.9592 15.2883 17.6886Z" fill="black"/>
</g>
<defs>
<clipPath id="clip0_531_4137">
<rect width="40" height="40" fill="white"/>
</clipPath>
</defs>
</svg>
