<svg width="34" height="34" viewBox="0 0 34 34" fill="none" xmlns="http://www.w3.org/2000/svg">
<path d="M11.4238 29.8276C22.7443 29.8276 28.9388 20.2729 28.9388 12.0011C28.9388 11.7323 28.9388 11.4635 28.9268 11.1947C30.1273 10.315 31.1717 9.2031 32 7.94461C30.8956 8.44556 29.7071 8.77546 28.4586 8.93429C29.7311 8.16454 30.7035 6.93049 31.1717 5.46429C29.9832 6.18517 28.6627 6.69834 27.2581 6.97936C26.1297 5.75753 24.533 5 22.7683 5C19.3709 5 16.6098 7.81021 16.6098 11.268C16.6098 11.7567 16.6699 12.2332 16.7659 12.6975C11.6519 12.4409 7.11405 9.93619 4.07683 6.14852C3.54862 7.07711 3.2485 8.15232 3.2485 9.30084C3.2485 11.4757 4.34094 13.394 5.98559 14.5181C4.97719 14.4814 4.02881 14.2004 3.20048 13.7361C3.20048 13.7605 3.20048 13.785 3.20048 13.8216C3.20048 16.8518 5.32533 19.3932 8.13445 19.9674C7.61825 20.114 7.07803 20.1873 6.51381 20.1873C6.11765 20.1873 5.73349 20.1507 5.36134 20.0774C6.14166 22.5699 8.42257 24.3782 11.1116 24.4271C8.9988 26.1132 6.34574 27.1151 3.46459 27.1151C2.97239 27.1151 2.48019 27.0907 2 27.0296C4.71309 28.789 7.95438 29.8276 11.4238 29.8276Z" fill="black"/>
</svg>
